<?xml version="1.0" encoding="UTF-8"?>
<svg width="32px" height="32px" viewBox="0 0 32 32" version="1.1" xmlns="http://www.w3.org/2000/svg" xmlns:xlink="http://www.w3.org/1999/xlink">
    <title>next</title>
    <g id="next" stroke="none" stroke-width="1" fill="none" fill-rule="evenodd">
        <path d="M25.4571068,5.20710678 C25.6446432,5.39464316 25.75,5.64899707 25.75,5.91421356 L25.75,26.0857864 C25.75,26.6380712 25.3022847,27.0857864 24.75,27.0857864 C24.4847835,27.0857864 24.2304296,26.9804296 24.0428932,26.7928932 L13.9571068,16.7071068 C13.5665825,16.3165825 13.5665825,15.6834175 13.9571068,15.2928932 L24.0428932,5.20710678 C24.4334175,4.81658249 25.0665825,4.81658249 25.4571068,5.20710678 Z M11.25,5.5 C11.8022847,5.5 12.25,5.94771525 12.25,6.5 L12.25,25.5 C12.25,26.0522847 11.8022847,26.5 11.25,26.5 L9.25,26.5 C8.69771525,26.5 8.25,26.0522847 8.25,25.5 L8.25,6.5 C8.25,5.94771525 8.69771525,5.5 9.25,5.5 L11.25,5.5 Z" id="Combined-Shape-Copy" fill="#000000" transform="translate(17.000000, 16.000000) scale(-1, 1) translate(-17.000000, -16.000000) "></path>
    </g>
</svg>