<?xml version="1.0" encoding="UTF-8"?>
<svg width="44px" height="44px" viewBox="0 0 44 44" version="1.1" xmlns="http://www.w3.org/2000/svg" xmlns:xlink="http://www.w3.org/1999/xlink">
    <title>pause</title>
    <g id="pause" stroke="none" stroke-width="1" fill="none" fill-rule="evenodd">
        <path d="M17.5,8 C18.0522847,8 18.5,8.44771525 18.5,9 L18.5,35 C18.5,35.5522847 18.0522847,36 17.5,36 L10.5,36 C9.94771525,36 9.5,35.5522847 9.5,35 L9.5,9 C9.5,8.44771525 9.94771525,8 10.5,8 L17.5,8 Z M33.5,8 C34.0522847,8 34.5,8.44771525 34.5,9 L34.5,35 C34.5,35.5522847 34.0522847,36 33.5,36 L26.5,36 C25.9477153,36 25.5,35.5522847 25.5,35 L25.5,9 C25.5,8.44771525 25.9477153,8 26.5,8 L33.5,8 Z" id="Combined-Shape" fill="#000000"></path>
    </g>
</svg>