<?xml version="1.0" encoding="UTF-8"?>
<svg width="32px" height="32px" viewBox="0 0 32 32" version="1.1" xmlns="http://www.w3.org/2000/svg" xmlns:xlink="http://www.w3.org/1999/xlink">
    <title>previous</title>
    <g id="previous" stroke="none" stroke-width="1" fill="none" fill-rule="evenodd">
        <path d="M23.4571068,5.20710678 C23.6446432,5.39464316 23.75,5.64899707 23.75,5.91421356 L23.75,26.0857864 C23.75,26.6380712 23.3022847,27.0857864 22.75,27.0857864 C22.4847835,27.0857864 22.2304296,26.9804296 22.0428932,26.7928932 L11.9571068,16.7071068 C11.5665825,16.3165825 11.5665825,15.6834175 11.9571068,15.2928932 L22.0428932,5.20710678 C22.4334175,4.81658249 23.0665825,4.81658249 23.4571068,5.20710678 Z M9.25,5.5 C9.80228475,5.5 10.25,5.94771525 10.25,6.5 L10.25,25.5 C10.25,26.0522847 9.80228475,26.5 9.25,26.5 L7.25,26.5 C6.69771525,26.5 6.25,26.0522847 6.25,25.5 L6.25,6.5 C6.25,5.94771525 6.69771525,5.5 7.25,5.5 L9.25,5.5 Z" id="Combined-Shape" fill="#000000"></path>
    </g>
</svg>